<?xml version="1.0" encoding="UTF-8" standalone="no"?>
<svg
   width="120"
   height="26"
   viewBox="0 0 120 26"
   version="1.1"
   id="svg897"
   sodipodi:docname="logo-asr-cmre.svg"
   inkscape:version="1.1.2 (b8e25be833, 2022-02-05)"
   xmlns:inkscape="http://www.inkscape.org/namespaces/inkscape"
   xmlns:sodipodi="http://sodipodi.sourceforge.net/DTD/sodipodi-0.dtd"
   xmlns="http://www.w3.org/2000/svg"
   xmlns:svg="http://www.w3.org/2000/svg">
  <defs
     id="defs901" />
  <sodipodi:namedview
     id="namedview899"
     pagecolor="#ffffff"
     bordercolor="#666666"
     borderopacity="1.0"
     inkscape:pageshadow="2"
     inkscape:pageopacity="0.0"
     inkscape:pagecheckerboard="0"
     showgrid="false"
     inkscape:zoom="10.24"
     inkscape:cx="97.119141"
     inkscape:cy="19.238281"
     inkscape:window-width="1920"
     inkscape:window-height="1009"
     inkscape:window-x="-8"
     inkscape:window-y="-8"
     inkscape:window-maximized="1"
     inkscape:current-layer="g895" />
  <g
     fill="none"
     fill-rule="evenodd"
     id="g895">
    <g
       id="g893">
      <path
         fill="#000000"
         d="M 15.938332,6.9814406 V 5.6524408 h -3.013 v 1.3899998 h -0.055 c -0.625,-0.9149998 -1.913,-1.5899998 -3.0739995,-1.5899998 -2.791,0 -4.477,2.0859998 -4.477,4.7680002 0,2.685 1.686,4.808 4.477,4.808 1.1599995,0 2.4499995,-0.655 3.0739995,-1.59 h 0.055 v 1.393 h 3.013 v -1.332 h -1.523 V 6.9814406 Z M 9.9573324,13.678441 c -2.0559999,0 -2.9519999,-1.689 -2.9519999,-3.458 0,-1.7100004 0.896,-3.4190002 2.9519999,-3.4190002 1.4639996,0 2.9339996,1.2349998 2.9339996,3.4190002 0,2.186 -1.47,3.458 -2.9339996,3.458 z m 11.4079996,-1.272 c -0.68,0 -1.23,0.575 -1.23,1.272 0,0.715 0.55,1.252 1.23,1.252 0.688,0 1.256,-0.537 1.256,-1.252 0,-0.697 -0.568,-1.272 -1.256,-1.272 z m 13.757,-0.199 c 0,-3.9540004 -6.422,-1.848 -6.422,-4.1530004 0,-1.03 0.943,-1.2519998 2.09,-1.2519998 0.534,0 1.024,0.1599998 1.432,0.4379998 0.432,0.278 0.748,0.695 0.898,1.212 h 1.395 V 5.6524408 h -1.313 v 0.852 c -0.763,-0.653 -1.74,-1.05 -2.74,-1.05 -1.659,0 -3.286,0.734 -3.286,2.6419998 0,4.3900004 6.418,1.9080004 6.418,4.2500004 0,1.252 -1.432,1.332 -2.213,1.332 -1.078,0 -2.48,-0.498 -2.894,-1.827 h -1.311 v 2.979 h 1.311 v -0.915 c 0.763,0.878 1.994,1.113 3.108,1.113 1.8,0 3.526,-0.774 3.526,-2.821 m 5.475,0.2 c -0.684,0 -1.234,0.574 -1.234,1.27 0,0.716 0.55,1.253 1.234,1.253 0.685,0 1.25,-0.537 1.25,-1.252 0,-0.697 -0.565,-1.271 -1.25,-1.271 m 12.838,-5.4460004 V 5.4544408 c -1.545,0 -2.834,0.536 -3.483,2.0059998 h -0.037 V 5.6524408 h -3.09 v 1.3299998 h 1.504 v 6.5170004 h -1.505 v 1.331 h 4.87 v -1.33 h -1.683 v -3.142 c 0,-2.3220004 0.65,-3.1980004 3.424,-3.3970004 m 4.147,7.9690004 c 0.687,0 1.25,-0.537 1.25,-1.252 0,-0.696 -0.563,-1.272 -1.25,-1.272 -0.682,0 -1.23,0.576 -1.23,1.272 0,0.715 0.548,1.252 1.23,1.252"
         id="path883" />
      <path
         fill="#949496"
         d="m 63.61,23.681 h 0.331 V 4.738 H 63.61 Z"
         id="path885" />
      <rect
         style="fill:#2ecc71;fill-opacity:1;stroke-width:0.854449"
         id="rect1041"
         width="56.456543"
         height="2.0127797"
         x="4.2143855"
         y="23.578274"
         ry="0" />
      <ellipse
         style="fill:#2ecc71;fill-opacity:1;stroke-width:1.13485"
         id="path1176"
         cx="57.554676"
         cy="13.682362"
         rx="1.3126919"
         ry="1.2982297" />
    </g>
    <text
       xml:space="preserve"
       style="font-size:14.6667px;line-height:1.25;font-family:SenticoSansDT;-inkscape-font-specification:SenticoSansDT;fill:#ff409b;fill-opacity:1"
       x="65.750801"
       y="16.964857"
       id="text18995"><tspan
         sodipodi:role="line"
         id="tspan18993"
         x="65.750801"
         y="16.964857"
         style="font-style:normal;font-variant:normal;font-weight:normal;font-stretch:normal;font-size:14.6667px;font-family:'Kaushan Script';-inkscape-font-specification:'Kaushan Script'">ARM</tspan></text>
  </g>
</svg>
