<?xml version="1.0" encoding="UTF-8"?>
<svg xmlns="http://www.w3.org/2000/svg" viewBox="0 0 350 262.5" width="128" height="96">
   <path fill="#cfd3d7" d="M328.4 260.4H21.5c-11.2 0-20.4-9.2-20.4-20.4V21.9c0-11.2 9-20.4 20.4-20.4h307.1c11.2 0 20.4 9.2 20.4 20.4V240c-.2 11.2-9.2 20.4-20.6 20.4zM21.5 3.3c-10.3 0-18.6 8.3-18.6 18.6V240c0 10.3 8.3 18.6 18.6 18.6h307.1c10.3 0 18.6-8.3 18.6-18.6V21.9c0-10.3-8.3-18.6-18.6-18.6H21.5z" />
   <path fill="#29be4c" d="M249.955 162.9H102.932c-21.782 0-39.479-14.4-39.479-31.9 0-17.6 17.821-31.9 39.479-31.9h147.023c21.781 0 39.479 14.4 39.479 31.9s-17.822 31.9-39.479 31.9z" style="stroke-width:1.11246" />
   <text xml:space="preserve" style="font-style:normal;font-variant:normal;font-weight:400;font-stretch:normal;font-size:43.75px;line-height:1.25;font-family:'Memphis Medium';-inkscape-font-specification:'Memphis Medium, ';text-align:center;text-anchor:middle;stroke-width:2.73438" x="180.285" y="17.578"><tspan style="font-style:normal;font-variant:normal;font-weight:400;font-stretch:normal;font-size:43.75px;font-family:'Memphis Medium';-inkscape-font-specification:'Memphis Medium, ';text-align:center;text-anchor:middle;stroke-width:2.73438" x="180.285" y="72.265">Run Status</tspan></text>
   <text xml:space="preserve" style="font-style:normal;font-variant:normal;font-weight:400;font-stretch:normal;font-size:51.0418px;line-height:1.25;font-family:'Memphis Medium';-inkscape-font-specification:'Memphis Medium, ';stroke-width:2.73438" x="179.394" y="215.583"><tspan style="font-style:normal;font-variant:normal;font-weight:400;font-stretch:normal;font-family:'Memphis Medium';stroke-width:2.73438" x="179.394" y="215.583">cmre</tspan></text>
   <text xml:space="preserve" style="font-style:normal;font-variant:normal;font-weight:400;font-stretch:normal;font-size:51.0418px;line-height:1.25;font-family:'Memphis Medium';-inkscape-font-specification:'Memphis Medium, ';stroke-width:2.73438" x="57.386" y="215.583"><tspan style="font-style:normal;font-variant:normal;font-weight:700;font-stretch:normal;font-family:'Memphis Medium';-inkscape-font-specification:'Memphis Medium, ';stroke-width:2.73438" x="57.386" y="215.583">a.s.r.</tspan></text>
   <text xml:space="preserve" style="font-size:47.3958px;line-height:1.25;font-family:SenticoSansDT;-inkscape-font-specification:SenticoSansDT;fill:#fff;fill-opacity:1;stroke-width:2.73438" x="177.882" y="146.824"><tspan style="font-size:47.3958px;text-align:center;text-anchor:middle;fill:#fff;fill-opacity:1;stroke-width:2.73438" x="177.882" y="146.824">CLOSED</tspan></text>
</svg>