<?xml version="1.0" encoding="UTF-8" standalone="no"?>
<svg
   data-name="Layer 1"
   width="763.05693"
   height="458"
   viewBox="0 0 763.05693 458"
   version="1.1"
   id="svg1035"
   sodipodi:docname="undraw_finance_re_gnv2.svg"
   inkscape:version="1.1.2 (b8e25be833, 2022-02-05)"
   xmlns:inkscape="http://www.inkscape.org/namespaces/inkscape"
   xmlns:sodipodi="http://sodipodi.sourceforge.net/DTD/sodipodi-0.dtd"
   xmlns="http://www.w3.org/2000/svg"
   xmlns:svg="http://www.w3.org/2000/svg">
  <defs
     id="defs1039" />
  <sodipodi:namedview
     id="namedview1037"
     pagecolor="#ffffff"
     bordercolor="#666666"
     borderopacity="1.0"
     inkscape:pageshadow="2"
     inkscape:pageopacity="0.0"
     inkscape:pagecheckerboard="0"
     showgrid="false"
     inkscape:zoom="0.8603552"
     inkscape:cx="324.86582"
     inkscape:cy="220.83902"
     inkscape:window-width="1920"
     inkscape:window-height="1009"
     inkscape:window-x="-8"
     inkscape:window-y="-8"
     inkscape:window-maximized="1"
     inkscape:current-layer="svg1035" />
  <path
     d="m 48.871728,97.137502 a 48,48 0 1 1 48,-48 48.05437,48.05437 0 0 1 -48,48 z m 0,-94 a 46,46 0 1 0 46,46 46.05223,46.05223 0 0 0 -46,-46 z"
     fill="#f2f2f2"
     id="path965"
     style="fill:#0069b4;fill-opacity:1" />
  <path
     d="m 374.87173,69.137502 a 24,24 0 1 1 24,-24 24.02734,24.02734 0 0 1 -24,24 z m 0,-46 a 22,22 0 1 0 22,22 22.0249,22.0249 0 0 0 -22,-22 z"
     fill="#f2f2f2"
     id="path967"
     style="fill:#0069b4;fill-opacity:1" />
  <path
     d="m 543.87173,186.1375 a 27,27 0 1 1 27,-27 27.03062,27.03062 0 0 1 -27,27 z m 0,-52 a 25,25 0 1 0 25,25 25.02817,25.02817 0 0 0 -25,-25 z"
     fill="#f2f2f2"
     id="path969"
     style="fill:#0069b4;fill-opacity:1" />
  <path
     d="m 762.92867,459.1375 h -225 a 1,1 0 0 1 0,-2 h 225 a 1,1 0 0 1 0,2 z"
     fill="#cccccc"
     id="path971" />
  <circle
     cx="641.78876"
     cy="129.82335"
     r="24.561029"
     fill="#ffb8b8"
     id="circle973" />
  <polygon
     points="631.857,424.285 611.124,381.386 628.257,375.567 643.465,420.343 "
     fill="#ffb8b8"
     id="polygon975"
     transform="translate(0.87172825,1.137506)" />
  <path
     d="m 623.31042,424.92257 22.38772,-7.60412 4.78777,14.09596 -36.48366,12.39189 v 0 a 14.88686,14.88686 0 0 1 9.30817,-18.88373 z"
     fill="#2f2e41"
     id="path977" />
  <polygon
     points="657.45,445.19 649.249,398.255 667.321,397.346 669.694,444.575 "
     fill="#ffb8b8"
     id="polygon979"
     transform="translate(0.87172825,1.137506)" />
  <path
     d="m 649.39978,443.26864 23.61406,-1.18678 0.74724,14.86811 -38.48216,1.93401 v 0 a 14.88686,14.88686 0 0 1 14.12086,-15.61534 z"
     fill="#2f2e41"
     id="path981" />
  <path
     d="m 597.70069,289.7675 a 10.05579,10.05579 0 0 0 -0.46773,-15.41224 l 11.674,-33.77419 -17.99152,4.59774 -8.32752,31.36769 a 10.11027,10.11027 0 0 0 15.11277,13.221 z"
     fill="#ffb8b8"
     id="path983" />
  <path
     d="m 669.42164,431.56133 a 4.54354,4.54354 0 0 1 -0.47412,-0.0254 l -16.6206,-1.75977 a 4.47242,4.47242 0 0 1 -3.99805,-3.97363 l -12.84473,-114.50977 -9.29443,31.335 17.32861,61.583 a 4.50019,4.50019 0 0 1 -3.81787,5.68946 l -16.84766,1.93652 a 4.523,4.523 0 0 1 -4.86328,-3.31543 l -18.40869,-69.30274 a 4.48241,4.48241 0 0 1 -0.11133,-1.748 l 8.27393,-62.19873 61.71387,4.94873 4.4624,146.70312 a 4.50044,4.50044 0 0 1 -4.49805,4.6377 z"
     fill="#2f2e41"
     id="path985" />
  <path
     d="m 648.08863,290.85625 c -20.67578,0 -44.08447,-7.98877 -45.502,-8.47949 l -0.41015,-0.14209 23.32472,-119.68408 0.4292,0.0176 c 9.24365,0.375 34.46924,0.56739 34.72315,0.56934 l 0.45263,0.003 9.72266,105.61865 1.73779,15.44873 -0.21289,0.17236 c -5.94772,4.8086 -14.82126,6.47559 -24.26511,6.47559 z"
     fill="#2a292e"
     id="path987" />
  <path
     d="m 610.7361,280.51299 -14.58936,-5.87649 7.436,-89.94384 a 14.85637,14.85637 0 0 1 6.47412,-11.10352 l 7.67724,-5.22461 v 0 a 4.86843,4.86843 0 0 1 4.82712,-6.23967 l 2.19876,0.0707 a 2.49979,2.49979 0 0 1 3.82715,2.66064 l -0.48291,9.5293 z"
     fill="#2f2e41"
     id="path989"
     style="fill:#0069b4;fill-opacity:1;stroke-width:1.00157;stroke-miterlimit:4;stroke-dasharray:none" />
  <path
     d="m 603.37428,264.3885 -19.04858,-0.80225 6.17065,-39.69238 5.11328,-37.34864 a 8.92423,8.92423 0 0 1 11.57764,-7.8457 v 0 a 8.917,8.917 0 0 1 6.17431,9.647 l -5.17968,40.46729 z"
     fill="#2f2e41"
     id="path991"
     style="fill:#0069b4;fill-opacity:1;stroke-width:1.00157;stroke-miterlimit:4;stroke-dasharray:none" />
  <path
     d="m 633.53639,281.8885 -0.1294,-0.40088 c -0.0884,-0.27442 -8.67285,-27.81153 5.69141,-60.67188 l 7.20313,-35.82568 6.15562,-22.49493 a 2.68922,2.68922 0 0 1 1.63131,-1.77293 2.47718,2.47718 0 0 1 2.64861,0.68046 v 0 a 17.19838,17.19838 0 0 1 12.85951,1.28589 l 8.64469,4.55386 a 9.81489,9.81489 0 0 1 4.98163,10.923 l -11.81543,50.42285 5.74365,47.09717 z"
     fill="#2f2e41"
     id="path993"
     style="fill:#0069b4;fill-opacity:1;stroke-width:1.00157;stroke-miterlimit:4;stroke-dasharray:none" />
  <path
     d="m 646.11657,262.47519 a 10.05578,10.05578 0 0 0 11.11782,-10.6841 l 26.7561,-19.82058 -9.35261,-4.4342 -28.85136,14.862 a 10.11028,10.11028 0 0 0 0.33005,20.07692 z"
     fill="#ffb8b8"
     id="path995" />
  <path
     d="m 662.89088,253.60283 -9.03662,-16.86914 22.28711,-14.668 -10.876,-39.00976 a 11.79539,11.79539 0 0 1 9.02983,-14.73143 v 0 a 11.8273,11.8273 0 0 1 13.5,7.76416 l 14.6748,43.13526 a 4.49921,4.49921 0 0 1 -1.51172,5.01269 z"
     fill="#2f2e41"
     id="path997"
     style="fill:#0069b4;fill-opacity:1;stroke-width:1.00157;stroke-miterlimit:4;stroke-dasharray:none" />
  <path
     d="m 643.52693,135.03283 c -2.94426,0.38308 -5.1652,-2.62934 -6.19529,-5.414 -1.03009,-2.78466 -1.81495,-6.02657 -4.37478,-7.53078 -3.49727,-2.05506 -7.97186,0.41663 -11.97116,-0.2614 -4.51644,-0.7657 -7.453,-5.55225 -7.68312,-10.12736 -0.23012,-4.57511 1.59053,-8.9754 3.377,-13.193608 l 0.62366,5.242268 a 10.39577,10.39577 0 0 1 4.54288,-9.086778 l -0.80385,7.692228 a 8.16418,8.16418 0 0 1 9.39248,-6.755538 l -0.1266,4.583318 c 5.2165,-0.620298 10.47858,-1.241458 15.71053,-0.768888 5.23195,0.47257 10.50043,2.127918 14.4658,5.573558 5.93158,5.15414 8.09792,13.641 7.37063,21.46535 -0.72729,7.82435 -3.95715,15.17468 -7.32339,22.27519 -0.847,1.78651 -2.01841,3.80245 -3.98237,4.03 -1.76463,0.20448 -3.3793,-1.27064 -3.92787,-2.96026 a 10.7299,10.7299 0 0 1 0.0476,-5.271 c 0.49629,-2.63729 1.12192,-5.33294 0.6553,-7.97564 -0.46662,-2.6427 -2.36777,-5.25419 -5.03173,-5.57806 -2.66396,-0.32387 -5.38987,2.72118 -4.10908,5.0794 z"
     fill="#2f2e41"
     id="path999" />
  <path
     d="m 322.18168,404.71467 -9.56074,-4.02569 -6.55863,-47.92811 h -87.33994 l -7.10907,47.7323 -8.55359,4.27673 a 2.0312,2.0312 0 0 0 0.90847,3.84791 h 117.42553 a 2.03109,2.03109 0 0 0 0.78797,-3.90314 z"
     fill="#e6e6e6"
     id="path1001" />
  <path
     d="M 477.39075,359.1375 H 48.352748 a 8.50008,8.50008 0 0 1 -8.481,-8.5 v -60.5 H 485.87175 v 60.5 a 8.50016,8.50016 0 0 1 -8.481,8.5 z"
     fill="#cccccc"
     id="path1003" />
  <path
     d="M 486.3202,318.73125 H 39.480128 V 59.864552 a 10.25845,10.25845 0 0 1 10.247,-10.24658 H 476.0732 a 10.25855,10.25855 0 0 1 10.247,10.24658 z"
     fill="#3f3d56"
     id="path1005" />
  <path
     d="M 459.6322,299.94268 H 66.168118 a 7.90831,7.90831 0 0 1 -7.89966,-7.89942 V 76.305962 a 7.90873,7.90873 0 0 1 7.89966,-7.89991 H 459.6322 a 7.90873,7.90873 0 0 1 7.89966,7.89991 V 292.04326 a 7.90831,7.90831 0 0 1 -7.89966,7.89942 z"
     fill="#ffffff"
     id="path1007" />
  <path
     d="M 455.92867,409.11781 H 74.928668 a 1,1 0 0 1 0,-2 H 455.92867 a 1,1 0 0 1 0,2 z"
     fill="#cccccc"
     id="path1009" />
  <path
     d="m 422.66783,273.1375 h -319.5354 a 1,1 0 0 1 -1,-1 V 118.98418 a 1,1 0 0 1 2,0 V 271.1375 h 318.5354 a 1,1 0 0 1 0,2 z"
     fill="#3f3d56"
     id="path1011" />
  <path
     d="m 171.4032,262.1375 h -29.063 a 2.97182,2.97182 0 0 1 -2.96851,-2.96826 v -40.06348 a 2.97182,2.97182 0 0 1 2.96851,-2.96826 h 29.063 a 2.97181,2.97181 0 0 1 2.9685,2.96826 v 40.06348 a 2.97181,2.97181 0 0 1 -2.9685,2.96826 z"
     fill="#2a292e"
     id="path1013"
     style="fill:#0069b4;fill-opacity:1" />
  <path
     d="m 224.4032,262.1375 h -29.063 a 2.97182,2.97182 0 0 1 -2.96851,-2.96826 v -78.06348 a 2.97182,2.97182 0 0 1 2.96851,-2.96826 h 29.063 a 2.97181,2.97181 0 0 1 2.9685,2.96826 v 78.06348 a 2.97181,2.97181 0 0 1 -2.9685,2.96826 z"
     fill="#2a292e"
     id="path1015"
     style="fill:#ffb900;fill-opacity:1" />
  <path
     d="m 277.4032,262.1375 h -29.063 a 2.97182,2.97182 0 0 1 -2.96851,-2.96826 v -40.06348 a 2.97182,2.97182 0 0 1 2.96851,-2.96826 h 29.063 a 2.97181,2.97181 0 0 1 2.9685,2.96826 v 40.06348 a 2.97181,2.97181 0 0 1 -2.9685,2.96826 z"
     fill="#2a292e"
     id="path1017"
     style="fill:#ff409b;fill-opacity:1" />
  <path
     d="m 330.4032,262.1375 h -29.063 a 2.90686,2.90686 0 0 1 -2.96851,-2.83379 v -93.33242 a 2.90686,2.90686 0 0 1 2.96851,-2.83379 h 29.063 a 2.90685,2.90685 0 0 1 2.9685,2.83379 v 93.33242 a 2.90685,2.90685 0 0 1 -2.9685,2.83379 z"
     fill="#2a292e"
     id="path1019"
     style="fill:#7872c0;fill-opacity:1" />
  <path
     d="m 383.4032,262.1375 h -29.063 a 2.97182,2.97182 0 0 1 -2.96851,-2.96826 V 139.10576 a 2.97182,2.97182 0 0 1 2.96851,-2.96826 h 29.063 a 2.97181,2.97181 0 0 1 2.9685,2.96826 v 120.06348 a 2.97181,2.97181 0 0 1 -2.9685,2.96826 z"
     fill="#2a292e"
     id="path1021"
     style="fill:#347d3e;fill-opacity:1" />
  <circle
     cx="156.87173"
     cy="198.13751"
     r="6"
     fill="#3f3d56"
     id="circle1023" />
  <circle
     cx="209.87173"
     cy="159.13751"
     r="6"
     fill="#3f3d56"
     id="circle1025" />
  <circle
     cx="262.87173"
     cy="198.13751"
     r="6"
     fill="#3f3d56"
     id="circle1027" />
  <circle
     cx="315.87173"
     cy="140.13751"
     r="6"
     fill="#3f3d56"
     id="circle1029" />
  <circle
     cx="368.87173"
     cy="118.1375"
     r="6"
     fill="#3f3d56"
     id="circle1031" />
  <polygon
     points="368.374,118.573 315.585,139.842 262.126,198.344 209,158.552 156.6,197.8 155.4,196.2 209,156.053 261.874,195.656 314.415,138.158 314.626,138.072 367.626,116.718 "
     fill="#3f3d56"
     id="polygon1033"
     transform="translate(0.87172825,1.137506)" />
  <text
     xml:space="preserve"
     style="font-style:normal;font-variant:normal;font-weight:normal;font-stretch:normal;font-size:40px;line-height:1.25;font-family:'Memphis Medium';-inkscape-font-specification:'Memphis Medium, '"
     x="119.65244"
     y="104.87074"
     id="text3143"><tspan
       sodipodi:role="line"
       id="tspan3141"
       x="119.65244"
       y="104.87074">a.s.r. cmre</tspan></text>
</svg>
